<?xml version="1.0" encoding="iso-8859-1"?>
<!-- Generator: Adobe Illustrator 19.0.0, SVG Export Plug-In . SVG Version: 6.00 Build 0)  -->
<svg xmlns="http://www.w3.org/2000/svg" xmlns:xlink="http://www.w3.org/1999/xlink" version="1.1" id="Capa_1" x="0px" y="0px" viewBox="0 0 470 470" style="enable-background:new 0 0 470 470;" xml:space="preserve" width="512" height="512">
<g>
	<path style="fill:#84B044;" d="M337.5,362.16V462.5h30c16.5,0,30-13.5,30-30v-30L337.5,362.16z"/>
	<path style="fill:#A2C352;" d="M367.5,342.5v90c0,16.5-13.5,30-30,30h-235c-16.5,0-30-13.5-30-30v-30L367.5,342.5z"/>
	<path style="fill:#84B044;" d="M367.5,7.5h-30v100.34l60-40.34v-30C397.5,21,384,7.5,367.5,7.5z"/>
	<path style="fill:#A2C352;" d="M367.5,37.5v90l-295-60v-30c0-16.5,13.5-30,30-30h235C354,7.5,367.5,21,367.5,37.5z"/>
	<polygon style="fill:#CCECFF;" points="397.5,67.5 397.5,402.5 367.5,402.5 297.17,235 367.5,67.5  "/>
	<rect x="72.5" y="67.5" style="fill:#FFFFFF;" width="295" height="335"/>
	<circle style="fill:#84B044;" cx="287.5" cy="37.5" r="7.5"/>
	<path style="fill:#99D9FF;" d="M292.5,165h-30l30,50h30v-20C322.5,178.5,309,165,292.5,165z"/>
	<path style="fill:#CCECFF;" d="M262.5,165h-85c-16.5,0-30,13.5-30,30v20h145v-20C292.5,178.5,279,165,262.5,165z"/>
	<path style="fill:#66C6FE;" d="M147.5,215v30l145,90c16.5,0,30-13.5,30-30v-90H147.5z"/>
	<path style="fill:#99D9FF;" d="M147.5,245v60c0,16.5,13.5,30,30,30h115v-90H147.5z"/>
	<circle cx="287.5" cy="37.5" r="7.5"/>
	<path d="M367.5,0h-265C81.822,0,65,16.822,65,37.5v395c0,20.678,16.822,37.5,37.5,37.5h265c20.678,0,37.5-16.822,37.5-37.5v-395   C405,16.822,388.178,0,367.5,0z M102.5,15h265c12.406,0,22.5,10.093,22.5,22.5V60H132.5c-4.142,0-7.5,3.358-7.5,7.5   s3.358,7.5,7.5,7.5H390v320H80V75h22.5c4.142,0,7.5-3.358,7.5-7.5s-3.358-7.5-7.5-7.5H80V37.5C80,25.093,90.093,15,102.5,15z    M367.5,455h-265C90.093,455,80,444.907,80,432.5V410h310v22.5C390,444.907,379.906,455,367.5,455z"/>
	<path d="M257.5,425h-45c-4.142,0-7.5,3.358-7.5,7.5s3.358,7.5,7.5,7.5h45c4.143,0,7.5-3.358,7.5-7.5S261.643,425,257.5,425z"/>
	<path d="M212.5,45h45c4.143,0,7.5-3.358,7.5-7.5s-3.357-7.5-7.5-7.5h-45c-4.142,0-7.5,3.358-7.5,7.5S208.358,45,212.5,45z"/>
	<path d="M117.5,252.5H140V305c0,20.678,16.822,37.5,37.5,37.5h115c20.678,0,37.5-16.822,37.5-37.5v-52.5h22.5   c4.143,0,7.5-3.358,7.5-7.5s-3.357-7.5-7.5-7.5H330v-15h2.5c4.143,0,7.5-3.358,7.5-7.5s-3.357-7.5-7.5-7.5H330V195   c0-20.678-16.822-37.5-37.5-37.5h-13.255c-3.484-17.096-18.635-30-36.745-30h-15c-18.11,0-33.261,12.904-36.745,30H177.5   c-20.678,0-37.5,16.822-37.5,37.5v12.5h-2.5c-4.142,0-7.5,3.358-7.5,7.5s3.358,7.5,7.5,7.5H315V305c0,12.407-10.094,22.5-22.5,22.5   h-115c-12.407,0-22.5-10.093-22.5-22.5v-60c0-4.142-3.358-7.5-7.5-7.5h-30c-4.142,0-7.5,3.358-7.5,7.5S113.358,252.5,117.5,252.5z    M227.5,142.5h15c9.777,0,18.114,6.271,21.21,15h-57.42C209.386,148.771,217.722,142.5,227.5,142.5z M155,195   c0-12.407,10.093-22.5,22.5-22.5h115c12.406,0,22.5,10.093,22.5,22.5v12.5H155V195z"/>
</g>















</svg>
