<?xml version="1.0" encoding="iso-8859-1"?>
<!-- Generator: Adobe Illustrator 19.0.0, SVG Export Plug-In . SVG Version: 6.00 Build 0)  -->
<svg xmlns="http://www.w3.org/2000/svg" xmlns:xlink="http://www.w3.org/1999/xlink" version="1.1" id="Capa_1" x="0px" y="0px" viewBox="0 0 470.001 470.001" style="enable-background:new 0 0 470.001 470.001;" xml:space="preserve" width="512" height="512">
<g>
	<path style="fill:#99D9FF;" d="M235,27.5L175,235l60,207.5c114.599,0,207.5-92.901,207.5-207.5S349.599,27.5,235,27.5z"/>
	<path style="fill:#CCECFF;" d="M27.5,235c0,114.599,92.901,207.5,207.5,207.5v-415C120.401,27.5,27.5,120.401,27.5,235z"/>
	<path style="fill:#CCECFF;" d="M236.77,67.51C328.32,68.46,402.5,143.23,402.5,235s-74.18,166.54-165.73,167.49   C311.78,401.32,372.5,326.64,372.5,235S311.78,68.68,236.77,67.51z"/>
	<path style="fill:#FFFFFF;" d="M236.77,67.51C311.78,68.68,372.5,143.36,372.5,235s-60.72,166.32-135.73,167.49   c-0.59,0.01-1.18,0.01-1.77,0.01c-92.36,0-167.5-75.14-167.5-167.5S142.64,67.5,235,67.5C235.59,67.5,236.18,67.5,236.77,67.51z"/>
	<polygon style="fill:#FEFDCA;" points="365.001,7.5 364.991,462.5 343.331,442.5 335.001,450.185 261.651,235.01 335.002,19.804    343.341,27.5  "/>
	<polygon style="fill:#FFFFFF;" points="321.651,7.52 335.002,19.804 335.001,450.185 321.651,462.5 299.991,442.5 278.331,462.5    256.661,442.5 234.991,462.5 213.331,442.5 191.651,462.5 169.991,442.5 148.331,462.5 126.661,442.5 105.001,462.5 105.001,7.5    126.661,27.5 148.341,7.5 170.001,27.5 191.671,7.5 213.341,27.5 235.001,7.5 256.661,27.5 278.341,7.5 300.001,27.5  "/>
	<path d="M450,235c0-64.219-28.209-124.235-77.501-165.266L372.5,7.5c0-2.979-1.763-5.676-4.492-6.871   c-2.728-1.194-5.906-0.661-8.095,1.36l-16.576,15.303L326.761,1.99c-2.873-2.651-7.3-2.652-10.174-0.001l-16.585,15.305   L283.424,1.99c-2.872-2.651-7.3-2.652-10.174-0.001l-16.585,15.305L240.088,1.99c-2.873-2.652-7.302-2.652-10.175,0l-16.576,15.303   L196.761,1.99c-2.872-2.651-7.3-2.652-10.174-0.001l-16.585,15.305L153.424,1.99c-2.873-2.651-7.3-2.652-10.174-0.001   l-16.585,15.305L110.088,1.99c-2.188-2.021-5.366-2.555-8.095-1.36C99.264,1.825,97.5,4.521,97.5,7.5v62.235   C48.209,110.766,20,170.781,20,235c0,64.219,28.209,124.234,77.5,165.265V462.5c0,2.979,1.763,5.676,4.492,6.871   s5.907,0.661,8.095-1.36l16.576-15.303l16.576,15.303c2.874,2.652,7.302,2.652,10.175,0l16.576-15.303l16.576,15.303   c2.872,2.652,7.3,2.652,10.174,0.001l16.585-15.305l16.577,15.304c2.872,2.652,7.3,2.652,10.174,0.001l16.585-15.305l16.577,15.304   c2.874,2.652,7.302,2.652,10.175,0l16.576-15.303l16.576,15.303c2.873,2.652,7.3,2.652,10.174,0.001l16.585-15.305l16.577,15.304   c1.413,1.305,3.238,1.989,5.089,1.989c1.016,0,2.039-0.206,3.006-0.629c2.729-1.195,4.492-3.892,4.492-6.871l0.001-62.229   C421.789,359.241,450,299.223,450,235z M35,235c0-55.441,22.597-107.518,62.5-145.237v226.923C82.884,292.091,75,263.792,75,235   c0-16.146,2.408-32.085,7.157-47.374c1.229-3.956-0.982-8.159-4.938-9.388c-3.955-1.227-8.158,0.982-9.388,4.938   C62.636,199.908,60,217.344,60,235c0,39.12,13.303,77.406,37.5,108.13v37.107C57.597,342.518,35,290.44,35,235z M357.492,445.369   l-9.077-8.379c-2.873-2.652-7.3-2.652-10.174-0.001l-16.585,15.305l-16.577-15.304c-1.437-1.326-3.262-1.989-5.087-1.989   c-1.826,0-3.651,0.663-5.087,1.989l-16.576,15.303l-16.576-15.303c-2.872-2.652-7.3-2.652-10.174-0.001l-16.585,15.305   l-16.577-15.304c-2.872-2.652-7.3-2.652-10.174-0.001l-16.585,15.305l-16.577-15.304c-2.874-2.653-7.302-2.652-10.175,0   l-16.576,15.303l-16.576-15.303c-2.874-2.653-7.302-2.652-10.175,0l-9.076,8.379V24.632l9.076,8.379   c2.873,2.652,7.3,2.652,10.174,0.001l16.585-15.305l16.577,15.304c2.873,2.652,7.3,2.652,10.174,0.001l16.585-15.305l16.577,15.304   c2.873,2.653,7.302,2.652,10.175,0L235,17.708l16.576,15.303c2.872,2.652,7.3,2.652,10.174,0.001l16.585-15.305l16.577,15.304   c2.873,2.652,7.3,2.652,10.174,0.001l16.585-15.305l16.577,15.304c2.874,2.653,7.302,2.652,10.175,0l9.076-8.379L357.492,445.369z    M372.493,380.244l0.005-226.936C387.115,177.906,395,206.206,395,235c0,16.152-2.41,32.097-7.163,47.392   c-1.229,3.956,0.981,8.159,4.937,9.388c0.741,0.23,1.491,0.34,2.228,0.34c3.198,0,6.161-2.062,7.16-5.276   C407.363,270.105,410,252.663,410,235c0-39.122-13.303-77.409-37.502-108.133l0.001-37.104C412.403,127.481,435,179.56,435,235   C435,290.444,412.401,342.525,372.493,380.244z"/>
	<path d="M299.998,136.995c2.02,0,4.034-0.811,5.513-2.413c2.81-3.043,2.62-7.789-0.423-10.598l-21.664-20   c-2.873-2.652-7.302-2.652-10.175,0l-16.576,15.303l-16.576-15.303c-2.872-2.651-7.3-2.652-10.174-0.001l-16.585,15.305   l-16.577-15.304c-2.872-2.651-7.3-2.652-10.174-0.001l-21.673,20c-3.044,2.809-3.234,7.554-0.425,10.598s7.554,3.234,10.598,0.425   l16.585-15.305l16.577,15.304c2.872,2.652,7.3,2.652,10.174,0.001l16.585-15.305l16.577,15.304c2.873,2.652,7.302,2.652,10.175,0   l16.576-15.303l16.576,15.303C296.355,136.337,298.179,136.995,299.998,136.995z"/>
	<path d="M300,160.505h-13.327c-4.142,0-7.5,3.358-7.5,7.5s3.358,7.5,7.5,7.5H300c4.142,0,7.5-3.358,7.5-7.5   S304.142,160.505,300,160.505z"/>
	<path d="M256.673,160.505H170c-4.142,0-7.5,3.358-7.5,7.5s3.358,7.5,7.5,7.5h86.673c4.142,0,7.5-3.358,7.5-7.5   S260.815,160.505,256.673,160.505z"/>
	<path d="M300,190.505h-13.327c-4.142,0-7.5,3.358-7.5,7.5s3.358,7.5,7.5,7.5H300c4.142,0,7.5-3.358,7.5-7.5   S304.142,190.505,300,190.505z"/>
	<path d="M256.673,190.505H170c-4.142,0-7.5,3.358-7.5,7.5s3.358,7.5,7.5,7.5h86.673c4.142,0,7.5-3.358,7.5-7.5   S260.815,190.505,256.673,190.505z"/>
	<path d="M300,220.505h-13.327c-4.142,0-7.5,3.358-7.5,7.5s3.358,7.5,7.5,7.5H300c4.142,0,7.5-3.358,7.5-7.5   S304.142,220.505,300,220.505z"/>
	<path d="M256.673,220.505H170c-4.142,0-7.5,3.358-7.5,7.5s3.358,7.5,7.5,7.5h86.673c4.142,0,7.5-3.358,7.5-7.5   S260.815,220.505,256.673,220.505z"/>
	<path d="M300,250.505h-13.327c-4.142,0-7.5,3.358-7.5,7.5c0,4.142,3.358,7.5,7.5,7.5H300c4.142,0,7.5-3.358,7.5-7.5   C307.5,253.863,304.142,250.505,300,250.505z"/>
	<path d="M256.673,250.505H170c-4.142,0-7.5,3.358-7.5,7.5c0,4.142,3.358,7.5,7.5,7.5h86.673c4.142,0,7.5-3.358,7.5-7.5   C264.173,253.863,260.815,250.505,256.673,250.505z"/>
	<path d="M300,353.006h-13.327c-4.142,0-7.5,3.358-7.5,7.5s3.358,7.5,7.5,7.5H300c4.142,0,7.5-3.358,7.5-7.5   S304.142,353.006,300,353.006z"/>
	<path d="M256.673,353.006H170c-4.142,0-7.5,3.358-7.5,7.5s3.358,7.5,7.5,7.5h86.673c4.142,0,7.5-3.358,7.5-7.5   S260.815,353.006,256.673,353.006z"/>
</g>















</svg>
