<?xml version="1.0" encoding="iso-8859-1"?>
<!-- Generator: Adobe Illustrator 19.0.0, SVG Export Plug-In . SVG Version: 6.00 Build 0)  -->
<svg xmlns="http://www.w3.org/2000/svg" xmlns:xlink="http://www.w3.org/1999/xlink" version="1.1" id="Capa_1" x="0px" y="0px" viewBox="0 0 470 470" style="enable-background:new 0 0 470 470;" xml:space="preserve" width="512" height="512">
<g>
	<path style="fill:#FDFA7B;" d="M140,82.5l-50,50l50-20c16.5,0,30-13.5,30-30H140z"/>
	<path style="fill:#FEFDCA;" d="M40,82.5h100c0,16.5-13.5,30-30,30l-20,20l-20-20C53.5,112.5,40,99,40,82.5z"/>
	<path style="fill:#FDCE6E;" d="M140,112.5l-50,50l50-20c16.5,0,30-13.5,30-30H140z"/>
	<path style="fill:#FDFA7B;" d="M40,112.5h100c0,16.5-13.5,30-30,30l-20,20l-20-20C53.5,142.5,40,129,40,112.5z"/>
	<path style="fill:#FDFA7B;" d="M140,142.5l-50,50l50-20c16.5,0,30-13.5,30-30H140z"/>
	<path style="fill:#FEFDCA;" d="M40,142.5h100c0,16.5-13.5,30-30,30l-20,20l-20-20C53.5,172.5,40,159,40,142.5z"/>
	<path style="fill:#FDCE6E;" d="M140,172.5l-50,50l50-20c16.5,0,30-13.5,30-30H140z"/>
	<path style="fill:#FDFA7B;" d="M40,172.5h100c0,16.5-13.5,30-30,30l-20,20l-20-20C53.5,202.5,40,189,40,172.5z"/>
	<path style="fill:#66C6FE;" d="M330,22.5v110l90-20C420,62.79,379.71,22.5,330,22.5z"/>
	<path style="fill:#99D9FF;" d="M390,112.5l-75,20l-75-20c0-49.71,40.29-90,90-90C363.14,22.5,390,62.79,390,112.5z"/>
	<rect x="230" y="112.5" style="fill:#5CA8D3;" width="170" height="30"/>
	<rect x="400" y="112.5" style="fill:#5389A9;" width="30" height="30"/>
	<path style="fill:#FDFA7B;" d="M235,222.501l-217.498,40v29.683l404.699,133.494c7.44,3.741,16.076,6.822,30.297,6.822v-170   L235,222.501z"/>
	<polygon style="fill:#CCECFF;" points="455.106,202.5 455.106,262.5 425.11,262.5 403.914,235.004 425.11,202.5  "/>
	<rect x="14.89" y="202.5" style="fill:#FFFFFF;" width="410.22" height="60"/>
	<path style="fill:#FEFDCA;" d="M422.201,292.5H17.493v140c36.251,0,36.251-20,72.502-20s36.251,20,72.502,20s36.251-20,72.502-20   c36.251,0,36.251,20,72.502,20c36.25,0,36.25-20,72.499-20c22.028,0,30.675,7.383,42.2,13.178V292.5z"/>
	<path d="M400,135H260.55c-4.143,0-7.5,3.358-7.5,7.5s3.357,7.5,7.5,7.5H400c4.143,0,7.5-3.358,7.5-7.5S404.143,135,400,135z"/>
	<path d="M455.106,195H437.5v-75h2.5c4.143,0,7.5-3.358,7.5-7.5s-3.357-7.5-7.5-7.5h-12.786   c-3.653-47.795-41.919-86.061-89.714-89.714V7.5c0-4.142-3.357-7.5-7.5-7.5s-7.5,3.358-7.5,7.5v7.786   c-47.795,3.653-86.061,41.919-89.714,89.714H220c-4.143,0-7.5,3.358-7.5,7.5s3.357,7.5,7.5,7.5h2.5v75h-52.52   c3.282-4.363,5.637-9.461,6.766-15H180c4.143,0,7.5-3.358,7.5-7.5s-3.357-7.5-7.5-7.5h-10.02c3.282-4.363,5.637-9.461,6.766-15H180   c4.143,0,7.5-3.358,7.5-7.5s-3.357-7.5-7.5-7.5h-10.02c3.282-4.363,5.637-9.461,6.766-15H180c4.143,0,7.5-3.358,7.5-7.5   s-3.357-7.5-7.5-7.5h-10.02c3.282-4.363,5.637-9.461,6.766-15H180c4.143,0,7.5-3.358,7.5-7.5S184.143,75,180,75H30   c-4.143,0-7.5,3.358-7.5,7.5S25.857,90,30,90h3.255c1.129,5.539,3.483,10.637,6.766,15H30c-4.143,0-7.5,3.358-7.5,7.5   s3.357,7.5,7.5,7.5h3.255c1.129,5.539,3.483,10.637,6.766,15H30c-4.143,0-7.5,3.358-7.5,7.5s3.357,7.5,7.5,7.5h3.255   c1.129,5.539,3.483,10.637,6.766,15H30c-4.143,0-7.5,3.358-7.5,7.5s3.357,7.5,7.5,7.5h3.255c1.129,5.539,3.483,10.637,6.766,15   H14.894c-4.143,0-7.5,3.358-7.5,7.5v60c0,4.142,3.357,7.5,7.5,7.5h370.188c4.143,0,7.5-3.358,7.5-7.5s-3.357-7.5-7.5-7.5H22.394   v-45h425.213v45h-32.525c-4.143,0-7.5,3.358-7.5,7.5s3.357,7.5,7.5,7.5h29.917v154.659c-11.293-1.094-17.794-4.681-25.126-8.726   C410.584,410.809,400.057,405,380.001,405s-30.584,5.809-39.872,10.933c-8.818,4.865-16.434,9.067-32.627,9.067   s-23.81-4.202-32.628-9.067C265.585,410.809,255.058,405,235,405s-30.585,5.809-39.874,10.933   c-8.818,4.865-16.435,9.067-32.628,9.067c-16.192,0-23.809-4.202-32.626-9.067C120.584,410.809,110.057,405,90.001,405   s-30.584,5.809-39.872,10.933c-2.089,1.152-4.112,2.264-6.196,3.295c-5.237,2.59-10.859,4.649-18.931,5.431V292.5   c0-4.142-3.357-7.5-7.5-7.5s-7.5,3.358-7.5,7.5v140c0,4.142,3.357,7.5,7.5,7.5c9.267,0,16.484-1.248,22.5-3.087V462.5   c0,4.142,3.357,7.5,7.5,7.5s7.5-3.358,7.5-7.5v-32.133c0.801-0.436,1.594-0.87,2.373-1.3C66.193,424.202,73.809,420,90.001,420   s23.808,4.202,32.625,9.066c9.288,5.125,19.815,10.934,39.872,10.934c20.058,0,30.585-5.809,39.874-10.933   C211.19,424.202,218.807,420,235,420s23.81,4.202,32.628,9.067c9.289,5.125,19.816,10.933,39.874,10.933   c20.057,0,30.585-5.809,39.873-10.933c8.818-4.865,16.434-9.067,32.626-9.067s23.808,4.202,32.625,9.066   c0.779,0.43,1.571,0.864,2.372,1.3V462.5c0,4.142,3.357,7.5,7.5,7.5s7.5-3.358,7.5-7.5v-25.588c6.016,1.84,13.233,3.088,22.5,3.088   c4.143,0,7.5-3.358,7.5-7.5V268.178c1.595-1.375,2.608-3.406,2.608-5.678v-60C462.606,198.358,459.249,195,455.106,195z M330,30   c42.961,0,78.34,33.013,82.144,75H247.856C251.66,63.013,287.039,30,330,30z M237.5,120h185v75h-185V120z M48.79,90h112.42   c-3.096,8.729-11.433,15-21.21,15H70C60.223,105,51.886,98.729,48.79,90z M48.79,120h112.42c-3.096,8.729-11.433,15-21.21,15H70   C60.223,135,51.886,128.729,48.79,120z M48.79,150h112.42c-3.096,8.729-11.433,15-21.21,15H70C60.223,165,51.886,158.729,48.79,150   z M48.79,180h112.42c-3.096,8.729-11.433,15-21.21,15H70C60.223,195,51.886,188.729,48.79,180z"/>
	<circle cx="410.001" cy="342.5" r="7.5"/>
	<circle cx="380.001" cy="372.5" r="7.5"/>
</g>















</svg>
